<svg width="29" height="29" viewBox="0 0 29 29" fill="none" xmlns="http://www.w3.org/2000/svg">
<path d="M29 14.5C29 22.5081 22.5081 29 14.5 29C6.49187 29 0 22.5081 0 14.5C0 6.49187 6.49187 0 14.5 0C22.5081 0 29 6.49187 29 14.5Z" fill="#FCC541"/>
<path fill-rule="evenodd" clip-rule="evenodd" d="M14.5 28C21.9558 28 28 21.9558 28 14.5C28 7.04416 21.9558 1 14.5 1C7.04416 1 1 7.04416 1 14.5C1 21.9558 7.04416 28 14.5 28ZM14.5 29C22.5081 29 29 22.5081 29 14.5C29 6.49187 22.5081 0 14.5 0C6.49187 0 0 6.49187 0 14.5C0 22.5081 6.49187 29 14.5 29Z" fill="black"/>
<path d="M21.2533 14.96V17.968H19.0773V20H15.2533C15.2959 19.552 15.3279 18.8747 15.3493 17.968H7.74927V14.736C10.2346 12.8267 12.4533 10.7093 14.4053 8.384H19.0773V14.96H21.2533ZM15.4293 11.552C14.6933 12.3093 14.0586 12.944 13.5253 13.456C12.9919 13.9573 12.3893 14.4587 11.7173 14.96H15.3813L15.4293 11.552Z" fill="black"/>
</svg>
