<svg width="29" height="29" viewBox="0 0 29 29" fill="none" xmlns="http://www.w3.org/2000/svg">
<path d="M29 14.5C29 22.5081 22.5081 29 14.5 29C6.49187 29 0 22.5081 0 14.5C0 6.49187 6.49187 0 14.5 0C22.5081 0 29 6.49187 29 14.5Z" fill="#FCC541"/>
<path fill-rule="evenodd" clip-rule="evenodd" d="M14.5 28C21.9558 28 28 21.9558 28 14.5C28 7.04416 21.9558 1 14.5 1C7.04416 1 1 7.04416 1 14.5C1 21.9558 7.04416 28 14.5 28ZM14.5 29C22.5081 29 29 22.5081 29 14.5C29 6.49187 22.5081 0 14.5 0C6.49187 0 0 6.49187 0 14.5C0 22.5081 6.49187 29 14.5 29Z" fill="black"/>
<path d="M8.92114 8.368H20.5051V10.432C18.4145 13.6 16.7985 16.7893 15.6571 20H11.3371C12.4998 17.1093 14.0305 14.2347 15.9291 11.376C12.9745 11.376 10.6385 11.4293 8.92114 11.536V8.368Z" fill="black"/>
</svg>
