<svg width="29" height="29" viewBox="0 0 29 29" fill="none" xmlns="http://www.w3.org/2000/svg">
<path d="M29 14.5C29 22.5081 22.5081 29 14.5 29C6.49187 29 0 22.5081 0 14.5C0 6.49187 6.49187 0 14.5 0C22.5081 0 29 6.49187 29 14.5Z" fill="#FCC541"/>
<path fill-rule="evenodd" clip-rule="evenodd" d="M14.5 28C21.9558 28 28 21.9558 28 14.5C28 7.04416 21.9558 1 14.5 1C7.04416 1 1 7.04416 1 14.5C1 21.9558 7.04416 28 14.5 28ZM14.5 29C22.5081 29 29 22.5081 29 14.5C29 6.49187 22.5081 0 14.5 0C6.49187 0 0 6.49187 0 14.5C0 22.5081 6.49187 29 14.5 29Z" fill="black"/>
<path d="M17.0211 14.112C17.4051 14.0373 17.7838 14 18.1571 14C18.8078 14 19.3358 14.112 19.7411 14.336C20.1571 14.5493 20.4558 14.8267 20.6371 15.168C20.8185 15.4987 20.9091 15.8453 20.9091 16.208C20.9091 17.0507 20.6318 17.7707 20.0771 18.368C19.5225 18.9547 18.7705 19.4027 17.8211 19.712C16.8718 20.0107 15.8158 20.16 14.6531 20.16C11.2825 20.16 9.10113 18.9867 8.10913 16.64L9.00513 16.416C9.66646 16.256 10.2265 16.1067 10.6851 15.968C11.1545 15.8187 11.5651 15.6533 11.9171 15.472C12.1305 16.0053 12.4345 16.3893 12.8291 16.624C13.2345 16.848 13.7891 16.96 14.4931 16.96C15.2398 16.96 15.8478 16.8747 16.3171 16.704C16.7865 16.5333 17.0211 16.2773 17.0211 15.936C17.0211 15.7547 16.9305 15.616 16.7491 15.52C16.5678 15.424 16.2798 15.36 15.8851 15.328C15.4905 15.2853 14.9358 15.264 14.2211 15.264H13.0051V12.464H13.7411C14.5518 12.464 15.2131 12.432 15.7251 12.368C16.2371 12.2933 16.4931 12.1387 16.4931 11.904C16.4931 11.6373 16.3545 11.424 16.0771 11.264C15.8105 11.0933 15.3891 11.008 14.8131 11.008C14.0665 11.008 13.4585 11.1627 12.9891 11.472C12.5305 11.7813 12.1731 12.2293 11.9171 12.816C10.7758 12.3573 9.5598 12.032 8.26913 11.84C8.78113 10.688 9.56513 9.79733 10.6211 9.168C11.6878 8.53867 13.0585 8.224 14.7331 8.224C15.8211 8.224 16.7971 8.368 17.6611 8.656C18.5358 8.93333 19.2185 9.32267 19.7091 9.824C20.2105 10.3253 20.4611 10.8853 20.4611 11.504C20.4611 11.8667 20.3758 12.192 20.2051 12.48C20.0345 12.7573 19.6985 13.0347 19.1971 13.312C18.6958 13.5787 17.9705 13.8453 17.0211 14.112Z" fill="black"/>
</svg>
