<svg width="29" height="29" viewBox="0 0 29 29" fill="none" xmlns="http://www.w3.org/2000/svg">
<path d="M29 14.5C29 22.5081 22.5081 29 14.5 29C6.49187 29 0 22.5081 0 14.5C0 6.49187 6.49187 0 14.5 0C22.5081 0 29 6.49187 29 14.5Z" fill="#FCC541"/>
<path fill-rule="evenodd" clip-rule="evenodd" d="M14.5 28C21.9558 28 28 21.9558 28 14.5C28 7.04416 21.9558 1 14.5 1C7.04416 1 1 7.04416 1 14.5C1 21.9558 7.04416 28 14.5 28ZM14.5 29C22.5081 29 29 22.5081 29 14.5C29 6.49187 22.5081 0 14.5 0C6.49187 0 0 6.49187 0 14.5C0 22.5081 6.49187 29 14.5 29Z" fill="black"/>
<path d="M15.6603 12.064C16.503 12.064 17.271 12.24 17.9643 12.592C18.6577 12.9333 19.2017 13.3973 19.5963 13.984C20.0017 14.5707 20.2043 15.2 20.2043 15.872C20.2043 16.7467 19.927 17.5093 19.3723 18.16C18.8177 18.8107 18.0657 19.3067 17.1163 19.648C16.167 19.9893 15.1057 20.16 13.9323 20.16C12.7377 20.16 11.671 19.9253 10.7323 19.456C9.80433 18.976 9.079 18.3147 8.55633 17.472C8.04433 16.6293 7.78833 15.6693 7.78833 14.592C7.78833 12.448 8.38033 10.8533 9.56433 9.808C10.759 8.752 12.3643 8.224 14.3803 8.224C16.8337 8.224 18.7697 8.84267 20.1883 10.08C19.5483 10.7627 18.9617 11.5147 18.4283 12.336C18.0017 12.016 17.399 11.76 16.6203 11.568C15.8523 11.3653 15.1643 11.264 14.5563 11.264C13.6283 11.264 12.8497 11.4987 12.2203 11.968C11.591 12.4267 11.207 13.088 11.0683 13.952C11.0577 14.0053 11.0523 14.08 11.0523 14.176C11.5643 13.4293 12.2363 12.8907 13.0683 12.56C13.911 12.2293 14.775 12.064 15.6603 12.064ZM14.0923 17.12C14.4977 17.12 14.8763 17.0667 15.2283 16.96C15.5803 16.8427 15.8577 16.688 16.0603 16.496C16.263 16.2933 16.3643 16.08 16.3643 15.856C16.3643 15.504 16.1403 15.2053 15.6923 14.96C15.255 14.704 14.7217 14.576 14.0923 14.576C13.463 14.576 12.9243 14.704 12.4763 14.96C12.039 15.2053 11.8203 15.504 11.8203 15.856C11.8203 16.08 11.9217 16.2933 12.1243 16.496C12.327 16.688 12.6043 16.8427 12.9563 16.96C13.3083 17.0667 13.687 17.12 14.0923 17.12Z" fill="black"/>
</svg>
