<svg width="29" height="29" viewBox="0 0 29 29" fill="none" xmlns="http://www.w3.org/2000/svg">
<path d="M29 14.5C29 22.5081 22.5081 29 14.5 29C6.49187 29 0 22.5081 0 14.5C0 6.49187 6.49187 0 14.5 0C22.5081 0 29 6.49187 29 14.5Z" fill="#FCC541"/>
<path fill-rule="evenodd" clip-rule="evenodd" d="M14.5 28C21.9558 28 28 21.9558 28 14.5C28 7.04416 21.9558 1 14.5 1C7.04416 1 1 7.04416 1 14.5C1 21.9558 7.04416 28 14.5 28ZM14.5 29C22.5081 29 29 22.5081 29 14.5C29 6.49187 22.5081 0 14.5 0C6.49187 0 0 6.49187 0 14.5C0 22.5081 6.49187 29 14.5 29Z" fill="black"/>
<path d="M11.9762 17.2C15.4429 17.008 18.1309 16.7947 20.0402 16.56C19.8589 17.1147 19.7202 17.7013 19.6242 18.32C19.5282 18.9387 19.4802 19.4987 19.4802 20H8.04021L8.02421 19.664C8.02421 18.6187 8.32821 17.712 8.9362 16.944C9.55487 16.176 10.4135 15.4667 11.5122 14.816C11.8322 14.624 12.3335 14.3787 13.0162 14.08C13.9015 13.696 14.5842 13.36 15.0642 13.072C15.5442 12.7733 15.7842 12.48 15.7842 12.192C15.7842 11.8293 15.6349 11.5413 15.3362 11.328C15.0375 11.1147 14.5735 11.008 13.9442 11.008C13.2509 11.008 12.7229 11.184 12.3602 11.536C12.0082 11.888 11.8322 12.336 11.8322 12.88C11.8322 13.0507 11.8482 13.2267 11.8802 13.408C10.5362 13.2373 9.22954 13.12 7.96021 13.056C7.96021 12.1493 8.19487 11.3333 8.66421 10.608C9.14421 9.872 9.85887 9.29067 10.8082 8.864C11.7682 8.43733 12.9415 8.224 14.3282 8.224C15.5975 8.224 16.6535 8.4 17.4962 8.752C18.3495 9.09333 18.9735 9.53067 19.3682 10.064C19.7735 10.5867 19.9762 11.1253 19.9762 11.68C19.9762 12.32 19.8322 12.8693 19.5442 13.328C19.2669 13.7867 18.8615 14.1973 18.3282 14.56C17.8055 14.912 17.1015 15.296 16.2162 15.712C16.0882 15.776 15.8802 15.8507 15.5922 15.936C15.3042 16.0107 15.1229 16.0587 15.0482 16.08C14.2909 16.304 13.6882 16.4907 13.2402 16.64C12.7922 16.7893 12.3709 16.976 11.9762 17.2Z" fill="black"/>
</svg>
