<svg width="29" height="29" viewBox="0 0 29 29" fill="none" xmlns="http://www.w3.org/2000/svg">
<path d="M29 14.5C29 22.5081 22.5081 29 14.5 29C6.49187 29 0 22.5081 0 14.5C0 6.49187 6.49187 0 14.5 0C22.5081 0 29 6.49187 29 14.5Z" fill="#FCC541"/>
<path fill-rule="evenodd" clip-rule="evenodd" d="M14.5 28C21.9558 28 28 21.9558 28 14.5C28 7.04416 21.9558 1 14.5 1C7.04416 1 1 7.04416 1 14.5C1 21.9558 7.04416 28 14.5 28ZM14.5 29C22.5081 29 29 22.5081 29 14.5C29 6.49187 22.5081 0 14.5 0C6.49187 0 0 6.49187 0 14.5C0 22.5081 6.49187 29 14.5 29Z" fill="black"/>
<path d="M15.3976 11.824C16.6136 11.824 17.6322 11.9947 18.4536 12.336C19.2856 12.6667 19.9042 13.12 20.3096 13.696C20.7256 14.2613 20.9336 14.896 20.9336 15.6C20.9336 17.2 20.3736 18.3627 19.2536 19.088C18.1442 19.8027 16.6562 20.16 14.7896 20.16C13.2216 20.16 11.8402 19.8987 10.6456 19.376C9.46158 18.8427 8.60291 17.952 8.06958 16.704C8.65625 16.6187 9.29625 16.48 9.98958 16.288C10.6936 16.096 11.3282 15.8987 11.8936 15.696C12.1176 16.1547 12.4322 16.4907 12.8376 16.704C13.2429 16.9067 13.7869 17.008 14.4696 17.008C15.1949 17.008 15.7922 16.8907 16.2616 16.656C16.7416 16.4213 16.9816 16.096 16.9816 15.68C16.9816 15.2533 16.7736 14.896 16.3576 14.608C15.9416 14.32 15.3069 14.176 14.4536 14.176C13.8989 14.176 13.3922 14.2773 12.9336 14.48C12.4749 14.672 12.1442 14.9493 11.9416 15.312H8.24558C8.50158 14.2133 8.72558 13.0293 8.91758 11.76C9.12025 10.4907 9.24291 9.36534 9.28558 8.384H20.5176V11.488C19.3336 11.4133 18.2136 11.3707 17.1576 11.36C16.1122 11.3387 14.6456 11.328 12.7576 11.328L12.5976 12.224C13.4082 11.9573 14.3416 11.824 15.3976 11.824Z" fill="black"/>
</svg>
