<?xml version="1.0" encoding="iso-8859-1"?>
<!-- Uploaded to: SVG Repo, www.svgrepo.com, Generator: SVG Repo Mixer Tools -->
<svg fill="#000000" height="800px" width="800px" version="1.1" id="Layer_1" xmlns="http://www.w3.org/2000/svg" xmlns:xlink="http://www.w3.org/1999/xlink" 
	 viewBox="0 0 504 504" xml:space="preserve">
<g>
	<g>
		<path d="M497.268,457.711l-57.384-57.384c-4.332-4.332-10.108-6.72-16.268-6.72c-1.192,0-2.36,0.116-3.504,0.292l-60.608-60.608
			c56.392-72.044,42.688-186.236-34.792-263.716c-39.996-40-90.852-64.392-143.2-68.68C128.912-3.429,81.12,13.039,46.916,47.251
			C-23.516,117.683-13.5,242.299,69.244,325.047c1.696,1.696,3.436,3.36,5.184,5.008c-0.004,0.276-0.04,0.556-0.04,0.832
			c0,43.432,35.336,78.764,78.768,78.764c18.448,0,35.396-6.42,48.832-17.08c9.036,1.22,17.98,1.856,26.772,1.856
			c39.456,0,75.952-12.18,104.948-35.216l60.424,60.424c-0.204,1.24-0.328,2.496-0.328,3.776c0,6.164,2.384,11.94,6.716,16.272
			l57.388,57.384c4.332,4.332,10.104,6.716,16.272,6.716c6.16,0,11.94-2.388,16.272-6.716l6.812-6.816
			C506.244,481.283,506.244,466.683,497.268,457.711z M362.976,263.887l-18.436-18.432l22.376-22.376
			C367.36,237.047,366.048,250.759,362.976,263.887z M362.664,205.055l-29.26,29.26l-35.968-35.972l29.188-29.192l35.252,35.252
			C362.116,204.651,362.4,204.847,362.664,205.055z M151.224,228.059l-36.5-36.496l32.684-32.68l36.5,36.496L151.224,228.059z
			 M153.016,252.127c-1.26,0-2.5,0.104-3.752,0.168l1.96-1.96L153.016,252.127z M239.188,140.099l-36.5-36.496l29.192-29.192
			l36.5,36.5L239.188,140.099z M279.516,122.043l35.968,35.972l-29.192,29.192l-35.968-35.972L279.516,122.043z M228.048,151.239
			l-33.004,33.004l-36.496-36.5l33.004-33.004L228.048,151.239z M147.412,136.607l-36.08-36.076l33.004-33.008l36.08,36.08
			L147.412,136.607z M136.272,147.743l-32.684,32.684l-36.08-36.076l32.684-32.68L136.272,147.743z M195.04,206.519l35.972,35.968
			l-27.708,27.712c-6.836-5.66-14.676-10.108-23.156-13.212l-17.788-17.788L195.04,206.519z M206.18,195.379l33.008-33.004
			l35.968,35.972l-33.004,33L206.18,195.379z M286.292,209.483l35.972,35.972l-33.008,33.008l-35.968-35.976L286.292,209.483z
			 M360.36,180.619l-22.6-22.6L348,147.771C353.168,158.543,357.288,169.547,360.36,180.619z M340.276,133.223l-13.656,13.656
			l-35.968-35.972l18.692-18.692C321.56,105.003,331.9,118.807,340.276,133.223z M255.428,50.855
			c14.952,8.084,29.324,18.208,42.66,30.34l-18.576,18.576l-36.5-36.5L255.428,50.855z M240.476,43.543l-8.596,8.596l-18.216-18.216
			C222.68,36.423,231.644,39.651,240.476,43.543z M182.24,29.623c0.44-0.44,0.804-0.928,1.116-1.436
			c1.488,0.152,2.976,0.32,4.468,0.516c0.328,1.356,1,2.652,2.06,3.712l30.86,30.86l-29.192,29.192l-36.076-36.08L182.24,29.623z
			 M162.256,27.331l-17.92,17.92L130.4,31.315C140.712,28.899,151.384,27.575,162.256,27.331z M113.272,36.463L133.2,56.387
			l-33.004,33.004L71.92,61.119C84.192,50.255,98.196,42.079,113.272,36.463z M60.784,72.255l28.276,28.276l-32.684,32.68
			l-20.08-20.076C41.908,98.235,50.032,84.407,60.784,72.255z M31.104,130.219l14.136,14.132L27,162.591
			C27.248,151.531,28.608,140.687,31.104,130.219z M28.32,187.731c-0.168-1.348-0.324-2.692-0.464-4.04
			c0.508-0.316,0.996-0.672,1.432-1.116l27.088-27.088l36.076,36.076L63.26,220.755l-30.86-30.86
			C31.244,188.739,29.816,188.019,28.32,187.731z M33.372,213.139l18.752,18.756l-8.916,8.912
			C39.192,231.695,35.908,222.439,33.372,213.139z M81.844,297.439l-0.984,0.984c-12.136-13.336-22.26-27.712-30.34-42.66
			l12.74-12.736l33.22,33.22C90.532,282.411,85.552,289.535,81.844,297.439z M74.4,231.891l29.188-29.192l36.496,36.5
			l-20.352,20.352c-3.924,1.84-7.672,4.008-11.224,6.452L74.4,231.891z M153.156,386.031c-30.404,0-55.14-24.74-55.14-55.14
			c0-3.42,0.316-6.848,0.936-10.18c4.852-26.052,27.652-44.964,54.204-44.964c30.404,0,55.14,24.736,55.14,55.144
			C208.296,361.295,183.56,386.031,153.156,386.031z M242.152,253.619l35.968,35.972l-32.68,32.684l-18.38-18.38
			c-3.008-8.212-7.288-15.808-12.696-22.484L242.152,253.619z M234.3,333.411l-2.64,2.644c0.112-1.672,0.256-3.332,0.256-5.028
			L234.3,333.411z M222.964,367.235c0.072-0.132,0.128-0.276,0.2-0.408l22.276-22.276l18.692,18.688
			C251.092,366.339,237.296,367.695,222.964,367.235z M281.216,358.051l-24.636-24.64l32.68-32.684l32.776,32.776
			C310.02,344.159,296.26,352.371,281.216,358.051z M333.172,322.367L300.4,289.591l33.004-33.004l24.416,24.42
			C352.208,296.091,344.032,310.091,333.172,322.367z"/>
	</g>
</g>
</svg>