<svg width="324" height="129" viewBox="0 0 324 129" fill="none" xmlns="http://www.w3.org/2000/svg">
<g filter="url(#filter0_dd_2926_275)">
<path d="M25 62.5C25 40.6848 42.6848 23 64.5 23H259.5C281.315 23 299 40.6848 299 62.5C299 84.3152 281.315 102 259.5 102H64.5C42.6847 102 25 84.3152 25 62.5Z" fill="#8130A7"/>
<path d="M25 62.5C25 40.6848 42.6848 23 64.5 23H259.5C281.315 23 299 40.6848 299 62.5C299 84.3152 281.315 102 259.5 102H64.5C42.6847 102 25 84.3152 25 62.5Z" stroke="black"/>
</g>
<defs>
<filter id="filter0_dd_2926_275" x="0.5" y="0.5" width="323" height="128" filterUnits="userSpaceOnUse" color-interpolation-filters="sRGB">
<feFlood flood-opacity="0" result="BackgroundImageFix"/>
<feColorMatrix in="SourceAlpha" type="matrix" values="0 0 0 0 0 0 0 0 0 0 0 0 0 0 0 0 0 0 127 0" result="hardAlpha"/>
<feOffset dy="2"/>
<feGaussianBlur stdDeviation="12"/>
<feColorMatrix type="matrix" values="0 0 0 0 0 0 0 0 0 0 0 0 0 0 0 0 0 0 0.08 0"/>
<feBlend mode="normal" in2="BackgroundImageFix" result="effect1_dropShadow_2926_275"/>
<feColorMatrix in="SourceAlpha" type="matrix" values="0 0 0 0 0 0 0 0 0 0 0 0 0 0 0 0 0 0 127 0" result="hardAlpha"/>
<feOffset/>
<feGaussianBlur stdDeviation="1"/>
<feColorMatrix type="matrix" values="0 0 0 0 0 0 0 0 0 0 0 0 0 0 0 0 0 0 0.08 0"/>
<feBlend mode="normal" in2="effect1_dropShadow_2926_275" result="effect2_dropShadow_2926_275"/>
<feBlend mode="normal" in="SourceGraphic" in2="effect2_dropShadow_2926_275" result="shape"/>
</filter>
</defs>
</svg>
