<svg width="146" height="77" viewBox="0 0 146 77" fill="none" xmlns="http://www.w3.org/2000/svg">
<g filter="url(#filter0_d_2935_730)">
<g filter="url(#filter1_dd_2935_730)">
<path d="M25 36.5C25 29.0442 31.0442 23 38.5 23H107.859C115.315 23 121.359 29.0442 121.359 36.5V36.5C121.359 43.9558 115.315 50 107.859 50H38.5C31.0442 50 25 43.9558 25 36.5V36.5Z" fill="#FCC541"/>
<path d="M25 36.5C25 29.0442 31.0442 23 38.5 23H107.859C115.315 23 121.359 29.0442 121.359 36.5V36.5C121.359 43.9558 115.315 50 107.859 50H38.5C31.0442 50 25 43.9558 25 36.5V36.5Z" stroke="black"/>
</g>
<path d="M38.7759 39.12C36.9679 39.12 35.6359 38.736 34.7799 37.968C33.9239 37.2 33.4959 36.104 33.4959 34.68C33.4959 33.248 33.9239 32.116 34.7799 31.284C35.6359 30.452 36.9679 30.036 38.7759 30.036C41.3039 30.036 42.9959 30.904 43.8519 32.64C43.1319 32.888 42.2879 33.26 41.3199 33.756C41.0879 33.308 40.7199 32.976 40.2159 32.76C39.7199 32.544 39.2119 32.436 38.6919 32.436C37.9239 32.436 37.3519 32.64 36.9759 33.048C36.5999 33.448 36.4119 33.944 36.4119 34.536C36.4119 35.176 36.6119 35.7 37.0119 36.108C37.4199 36.508 38.0399 36.708 38.8719 36.708C39.5359 36.708 40.0639 36.6 40.4559 36.384C40.8479 36.16 41.1359 35.808 41.3199 35.328C41.9759 35.68 42.8159 36.076 43.8399 36.516C43.4399 37.484 42.7719 38.16 41.8359 38.544C40.8999 38.928 39.8799 39.12 38.7759 39.12ZM51.6902 34.704C50.4902 34.672 49.6182 34.652 49.0742 34.644V39H46.5302V34.644C45.9942 34.652 45.1262 34.672 43.9262 34.704V32.448H51.6902V34.704ZM59.4577 37.008C59.4577 37.28 59.4897 37.472 59.5537 37.584C59.6177 37.696 59.7457 37.776 59.9377 37.824L59.8897 38.952C59.6337 38.992 59.4097 39.02 59.2177 39.036C59.0337 39.052 58.7857 39.06 58.4737 39.06C57.7857 39.06 57.3297 38.908 57.1057 38.604C56.8817 38.292 56.7697 37.896 56.7697 37.416V37.116C56.5377 37.772 56.1977 38.26 55.7497 38.58C55.3097 38.9 54.7457 39.06 54.0577 39.06C53.2577 39.06 52.6537 38.9 52.2457 38.58C51.8457 38.26 51.6457 37.784 51.6457 37.152C51.6457 36.632 51.8177 36.224 52.1617 35.928C52.5057 35.632 53.0377 35.428 53.7577 35.316C53.1497 34.884 52.5417 34.508 51.9337 34.188C52.4137 33.58 52.9617 33.12 53.5777 32.808C54.1937 32.488 54.9417 32.328 55.8217 32.328C57.0537 32.328 57.9657 32.596 58.5577 33.132C59.1577 33.66 59.4577 34.476 59.4577 35.58V37.008ZM56.0737 34.44C55.6657 34.44 55.3057 34.508 54.9937 34.644C54.6817 34.78 54.4017 34.984 54.1537 35.256C54.6337 35.2 55.2337 35.172 55.9537 35.172C56.2497 35.172 56.4577 35.136 56.5777 35.064C56.6977 34.992 56.7577 34.9 56.7577 34.788C56.7577 34.692 56.6977 34.612 56.5777 34.548C56.4577 34.476 56.2897 34.44 56.0737 34.44ZM54.8137 37.104C55.2617 37.104 55.6657 37.02 56.0257 36.852C56.3857 36.676 56.6337 36.448 56.7697 36.168V35.856C56.5777 35.952 56.3657 36.028 56.1337 36.084C55.9017 36.132 55.6217 36.18 55.2937 36.228L54.8617 36.3C54.4137 36.388 54.1897 36.54 54.1897 36.756C54.1897 36.988 54.3977 37.104 54.8137 37.104ZM65.4942 32.328C66.0142 32.328 66.4822 32.476 66.8982 32.772C67.3142 33.068 67.6382 33.472 67.8702 33.984C68.1022 34.488 68.2182 35.044 68.2182 35.652C68.2182 36.252 68.1022 36.82 67.8702 37.356C67.6382 37.884 67.3102 38.312 66.8862 38.64C66.4702 38.96 65.9942 39.12 65.4582 39.12C64.8342 39.12 64.2982 38.992 63.8502 38.736C63.4102 38.472 63.0822 38.068 62.8662 37.524C62.8662 37.98 62.8822 38.712 62.9142 39.72C62.9462 40.696 62.9622 41.384 62.9622 41.784H60.2502C60.2982 40.296 60.3222 38.74 60.3222 37.116C60.3222 35.492 60.2982 33.936 60.2502 32.448H62.5542L62.9022 33.948C63.1262 33.388 63.4622 32.98 63.9102 32.724C64.3582 32.46 64.8862 32.328 65.4942 32.328ZM64.2102 36.96C64.5702 36.96 64.8702 36.848 65.1102 36.624C65.3582 36.392 65.4822 36.092 65.4822 35.724C65.4822 35.316 65.3702 34.984 65.1462 34.728C64.9222 34.472 64.6182 34.344 64.2342 34.344C63.7942 34.344 63.4622 34.452 63.2382 34.668C63.0142 34.876 62.9022 35.228 62.9022 35.724C62.9022 36.004 62.9742 36.24 63.1182 36.432C63.2622 36.616 63.4342 36.752 63.6342 36.84C63.8342 36.92 64.0262 36.96 64.2102 36.96ZM75.9367 34.704C74.7367 34.672 73.8647 34.652 73.3207 34.644V39H70.7767V34.644C70.2407 34.652 69.3727 34.672 68.1727 34.704V32.448H75.9367V34.704ZM85.5166 32.448C85.4766 33.608 85.4566 34.656 85.4566 35.592C85.4566 36.512 85.4766 37.56 85.5166 38.736H83.0566L83.1886 34.584L81.3526 38.736H78.0046C78.0526 37.68 78.0766 36.632 78.0766 35.592C78.0766 34.536 78.0526 33.488 78.0046 32.448H80.3686L80.2486 36.708L82.0846 32.448H85.5166ZM88.6233 39H86.0673C86.1073 38.08 86.1273 36.988 86.1273 35.724C86.1273 34.452 86.1073 33.36 86.0673 32.448H92.8113C92.8033 32.728 92.7993 33.288 92.7993 34.128V34.776H88.6233V39ZM98.12 32.328C98.64 32.328 99.108 32.476 99.524 32.772C99.94 33.068 100.264 33.472 100.496 33.984C100.728 34.488 100.844 35.044 100.844 35.652C100.844 36.252 100.728 36.82 100.496 37.356C100.264 37.884 99.936 38.312 99.512 38.64C99.096 38.96 98.62 39.12 98.084 39.12C97.46 39.12 96.924 38.992 96.476 38.736C96.036 38.472 95.708 38.068 95.492 37.524C95.492 37.98 95.508 38.712 95.54 39.72C95.572 40.696 95.588 41.384 95.588 41.784H92.876C92.924 40.296 92.948 38.74 92.948 37.116C92.948 35.492 92.924 33.936 92.876 32.448H95.18L95.528 33.948C95.752 33.388 96.088 32.98 96.536 32.724C96.984 32.46 97.512 32.328 98.12 32.328ZM96.836 36.96C97.196 36.96 97.496 36.848 97.736 36.624C97.984 36.392 98.108 36.092 98.108 35.724C98.108 35.316 97.996 34.984 97.772 34.728C97.548 34.472 97.244 34.344 96.86 34.344C96.42 34.344 96.088 34.452 95.864 34.668C95.64 34.876 95.528 35.228 95.528 35.724C95.528 36.004 95.6 36.24 95.744 36.432C95.888 36.616 96.06 36.752 96.26 36.84C96.46 36.92 96.652 36.96 96.836 36.96ZM105.443 33.912C106.635 33.912 107.467 34.148 107.939 34.62C108.411 35.084 108.647 35.732 108.647 36.564C108.647 37.34 108.411 37.94 107.939 38.364C107.475 38.78 106.643 38.988 105.443 38.988H103.847V39H101.279C101.319 38.088 101.339 36.996 101.339 35.724C101.339 34.452 101.319 33.36 101.279 32.448H103.847V33.912H105.443ZM111.743 32.448C111.703 33.344 111.683 34.432 111.683 35.712C111.683 36.984 111.703 38.072 111.743 38.976H109.115C109.139 37.368 109.151 36.016 109.151 34.92C109.151 33.824 109.139 33 109.115 32.448H111.743ZM104.723 37.08C105.291 37.08 105.687 37.036 105.911 36.948C106.135 36.86 106.247 36.688 106.247 36.432C106.247 36.176 106.131 36.004 105.899 35.916C105.667 35.82 105.275 35.772 104.723 35.772L103.847 35.784V37.08H104.723Z" fill="#0F0F0F"/>
</g>
<defs>
<filter id="filter0_d_2935_730" x="20.5" y="22.5" width="105.359" height="36" filterUnits="userSpaceOnUse" color-interpolation-filters="sRGB">
<feFlood flood-opacity="0" result="BackgroundImageFix"/>
<feColorMatrix in="SourceAlpha" type="matrix" values="0 0 0 0 0 0 0 0 0 0 0 0 0 0 0 0 0 0 127 0" result="hardAlpha"/>
<feOffset dy="4"/>
<feGaussianBlur stdDeviation="2"/>
<feComposite in2="hardAlpha" operator="out"/>
<feColorMatrix type="matrix" values="0 0 0 0 0 0 0 0 0 0 0 0 0 0 0 0 0 0 0.25 0"/>
<feBlend mode="normal" in2="BackgroundImageFix" result="effect1_dropShadow_2935_730"/>
<feBlend mode="normal" in="SourceGraphic" in2="effect1_dropShadow_2935_730" result="shape"/>
</filter>
<filter id="filter1_dd_2935_730" x="0.5" y="0.5" width="145.359" height="76" filterUnits="userSpaceOnUse" color-interpolation-filters="sRGB">
<feFlood flood-opacity="0" result="BackgroundImageFix"/>
<feColorMatrix in="SourceAlpha" type="matrix" values="0 0 0 0 0 0 0 0 0 0 0 0 0 0 0 0 0 0 127 0" result="hardAlpha"/>
<feOffset dy="2"/>
<feGaussianBlur stdDeviation="12"/>
<feColorMatrix type="matrix" values="0 0 0 0 0 0 0 0 0 0 0 0 0 0 0 0 0 0 0.08 0"/>
<feBlend mode="normal" in2="BackgroundImageFix" result="effect1_dropShadow_2935_730"/>
<feColorMatrix in="SourceAlpha" type="matrix" values="0 0 0 0 0 0 0 0 0 0 0 0 0 0 0 0 0 0 127 0" result="hardAlpha"/>
<feOffset/>
<feGaussianBlur stdDeviation="1"/>
<feColorMatrix type="matrix" values="0 0 0 0 0 0 0 0 0 0 0 0 0 0 0 0 0 0 0.08 0"/>
<feBlend mode="normal" in2="effect1_dropShadow_2935_730" result="effect2_dropShadow_2935_730"/>
<feBlend mode="normal" in="SourceGraphic" in2="effect2_dropShadow_2935_730" result="shape"/>
</filter>
</defs>
</svg>
