<svg width="29" height="29" viewBox="0 0 29 29" fill="none" xmlns="http://www.w3.org/2000/svg">
<path d="M29 14.5C29 22.5081 22.5081 29 14.5 29C6.49187 29 0 22.5081 0 14.5C0 6.49187 6.49187 0 14.5 0C22.5081 0 29 6.49187 29 14.5Z" fill="#FCC541"/>
<path fill-rule="evenodd" clip-rule="evenodd" d="M14.5 28C21.9558 28 28 21.9558 28 14.5C28 7.04416 21.9558 1 14.5 1C7.04416 1 1 7.04416 1 14.5C1 21.9558 7.04416 28 14.5 28ZM14.5 29C22.5081 29 29 22.5081 29 14.5C29 6.49187 22.5081 0 14.5 0C6.49187 0 0 6.49187 0 14.5C0 22.5081 6.49187 29 14.5 29Z" fill="black"/>
<path d="M17.3688 17.04C18.3288 17.0187 19.0381 16.9973 19.4968 16.976V20H11.0328V16.976C12.1848 17.0187 13.0541 17.04 13.6408 17.04V11.52C13.2568 12.3627 12.4728 12.9067 11.2888 13.152C11.2568 11.8933 11.1394 10.7467 10.9368 9.712C11.7901 9.59467 12.3821 9.45067 12.7128 9.28C13.0541 9.09867 13.3154 8.90133 13.4968 8.688C13.6888 8.47467 13.8168 8.33067 13.8808 8.256V8.224H17.3688V17.04Z" fill="black"/>
</svg>
